<?xml version="1.0" encoding="UTF-8" standalone="no"?>
<svg
   xmlns:dc="http://purl.org/dc/elements/1.1/"
   xmlns:cc="http://creativecommons.org/ns#"
   xmlns:rdf="http://www.w3.org/1999/02/22-rdf-syntax-ns#"
   xmlns:svg="http://www.w3.org/2000/svg"
   xmlns="http://www.w3.org/2000/svg"
   xmlns:xlink="http://www.w3.org/1999/xlink"
   xmlns:sodipodi="http://sodipodi.sourceforge.net/DTD/sodipodi-0.dtd"
   xmlns:inkscape="http://www.inkscape.org/namespaces/inkscape"
   width="222.70673"
   height="166.66931"
   viewBox="0 0 222.70673 166.66931"
   version="1.1"
   id="svg9"
   sodipodi:docname="splash.svg"
   inkscape:version="0.92.3 (2405546, 2018-03-11)"
   inkscape:export-filename="/home/micha/Develop/berrylan/android/res/drawable-mdpi/splashimage.png"
   inkscape:export-xdpi="96.190475"
   inkscape:export-ydpi="96.190475">
  <metadata
     id="metadata13">
    <rdf:RDF>
      <cc:Work
         rdf:about="">
        <dc:format>image/svg+xml</dc:format>
        <dc:type
           rdf:resource="http://purl.org/dc/dcmitype/StillImage" />
        <dc:title></dc:title>
      </cc:Work>
    </rdf:RDF>
  </metadata>
  <sodipodi:namedview
     pagecolor="#ffffff"
     bordercolor="#666666"
     borderopacity="1"
     objecttolerance="10"
     gridtolerance="10"
     guidetolerance="10"
     inkscape:pageopacity="0"
     inkscape:pageshadow="2"
     inkscape:window-width="2880"
     inkscape:window-height="1698"
     id="namedview11"
     showgrid="false"
     fit-margin-top="0"
     fit-margin-left="0"
     fit-margin-right="0"
     fit-margin-bottom="0"
     inkscape:zoom="2.9428571"
     inkscape:cx="111.35336"
     inkscape:cy="25.720001"
     inkscape:window-x="0"
     inkscape:window-y="44"
     inkscape:window-maximized="1"
     inkscape:current-layer="svg9" />
  <!-- Generator: Sketch 47.1 (45422) - http://www.bohemiancoding.com/sketch -->
  <desc
     id="desc2">Created with Sketch.</desc>
  <defs
     id="defs4">
    <linearGradient
       inkscape:collect="always"
       xlink:href="#linearGradient-1"
       id="linearGradient849"
       x1="85.5"
       y1="-1.4210855e-14"
       x2="85.5"
       y2="171"
       gradientUnits="userSpaceOnUse"
       gradientTransform="translate(117,131)" />
    <linearGradient
       x1="0.5"
       y1="0"
       x2="0.5"
       y2="1"
       id="linearGradient-1">
      <stop
         stop-color="#E71D36"
         offset="0%"
         id="stop4" />
      <stop
         stop-color="#CB2D3E"
         offset="100%"
         id="stop6" />
    </linearGradient>
    <linearGradient
       inkscape:collect="always"
       xlink:href="#linearGradient-1"
       id="linearGradient851"
       x1="231.5"
       y1="-1.4210855e-14"
       x2="231.5"
       y2="171"
       gradientUnits="userSpaceOnUse"
       gradientTransform="translate(117,131)" />
    <linearGradient
       inkscape:collect="always"
       xlink:href="#linearGradient-1"
       id="linearGradient853"
       x1="379.5"
       y1="-1.4210855e-14"
       x2="379.5"
       y2="171"
       gradientUnits="userSpaceOnUse"
       gradientTransform="translate(117,131)" />
  </defs>
  <g
     id="Page-1"
     style="fill:none;fill-rule:evenodd;stroke:none;stroke-width:1"
     transform="translate(6.3533636,114.9493)">
    <g
       id="Artboard"
       style="fill:#011627">
      <path
         d="m 6.9388325,35.979131 h 8.9947825 c 3.212439,0 4.818634,-1.541947 4.818634,-4.625888 v -3.983404 c 0,-3.083941 -1.691859,-4.625888 -5.075627,-4.625888 H 6.9388325 c -0.4711577,0 -0.706733,0.214159 -0.706733,0.642484 v 11.950212 c 0,0.428325 0.2355753,0.642484 0.706733,0.642484 z m 0,-18.375056 h 8.3522985 c 3.255271,0 4.882882,-1.563363 4.882882,-4.690137 V 9.9585096 c 0,-3.083941 -1.584779,-4.6258884 -4.754385,-4.6258884 H 6.9388325 c -0.4711577,0 -0.706733,0.2141594 -0.706733,0.6424845 V 16.96159 c 0,0.428326 0.2355753,0.642485 0.706733,0.642485 z M 0,40.219529 V 1.0922236 C 0,0.3640709 0.3640709,0 1.0922236,0 H 16.319106 c 3.169606,0 5.632438,0.85663742 7.388572,2.569938 1.756133,1.7133005 2.634186,4.1333012 2.634186,7.2600747 v 3.1481743 c 0,3.726428 -1.756107,6.125013 -5.268373,7.195826 1.670468,0.214162 3.051796,0.942304 4.144025,2.184447 1.092229,1.242143 1.638336,2.912586 1.638336,5.011379 v 4.111901 c 0,3.126773 -0.878054,5.546774 -2.634187,7.260075 -1.756133,1.7133 -4.19755,2.569937 -7.324323,2.569937 H 1.0922236 C 0.3640709,41.311752 0,40.947682 0,40.219529 Z m 55.607033,1.092223 H 41.729368 c -3.169606,0 -5.621731,-0.878053 -7.356448,-2.634186 -1.734717,-1.756133 -2.602062,-4.19755 -2.602062,-7.324323 v -12.84969 c 0,-3.169606 0.867345,-5.62173 2.602062,-7.356447 1.734717,-1.7347169 4.186842,-2.6020623 7.356448,-2.6020623 h 5.268372 c 3.169606,0 5.632439,0.8673454 7.388572,2.6020623 1.756133,1.734717 2.634186,4.186841 2.634186,7.356447 v 8.159553 c 0,0.770985 -0.385487,1.156472 -1.156472,1.156472 H 38.645442 c -0.471158,0 -0.706733,0.21416 -0.706733,0.642485 v 2.762683 c 0,3.126774 1.563363,4.690137 4.690137,4.690137 h 12.978187 c 0.770985,0 1.156472,0.385487 1.156472,1.156472 v 3.212422 c 0,0.685321 -0.385487,1.027975 -1.156472,1.027975 z M 38.645442,23.450684 h 11.500472 c 0.428325,0 0.642485,-0.21416 0.642485,-0.642485 v -4.1119 c 0,-1.627636 -0.364071,-2.81622 -1.092224,-3.565789 -0.728153,-0.749569 -1.906029,-1.124348 -3.533664,-1.124348 h -3.533665 c -1.627636,0 -2.805512,0.374779 -3.533665,1.124348 -0.728152,0.749569 -1.092223,1.938153 -1.092223,3.565789 v 4.1119 c 0,0.428325 0.214159,0.642485 0.642484,0.642485 z m 28.172945,17.861068 h -4.047652 c -0.728153,0 -1.092224,-0.36407 -1.092224,-1.092223 V 9.6372673 c 0,-0.7281527 0.364071,-1.0922236 1.092224,-1.0922236 h 4.047652 c 0.728153,0 1.092224,0.3640709 1.092224,1.0922236 v 2.4414407 h 0.256993 c 0.428325,-1.070812 1.252839,-1.92745 2.473566,-2.5699376 1.220726,-0.6424877 2.580638,-0.9637267 4.079776,-0.9637267 h 2.377193 c 0.728152,0 1.092223,0.3640709 1.092223,1.0922236 v 3.3409197 c 0,0.813817 -0.364071,1.156472 -1.092223,1.027975 h -3.854907 c -3.555099,0 -5.332621,1.94885 -5.332621,5.846609 v 20.366758 c 0,0.728153 -0.364071,1.092223 -1.092224,1.092223 z m 19.113914,0 h -4.047653 c -0.728152,0 -1.092223,-0.36407 -1.092223,-1.092223 V 9.6372673 c 0,-0.7281527 0.364071,-1.0922236 1.092223,-1.0922236 h 4.047653 c 0.728152,0 1.092223,0.3640709 1.092223,1.0922236 v 2.4414407 h 0.256994 c 0.428325,-1.070812 1.252839,-1.92745 2.473565,-2.5699376 1.220727,-0.6424877 2.580639,-0.9637267 4.079777,-0.9637267 h 2.377192 c 0.728153,0 1.092224,0.3640709 1.092224,1.0922236 v 3.3409197 c 0,0.813817 -0.364071,1.156472 -1.092224,1.027975 h -3.854906 c -3.555099,0 -5.332622,1.94885 -5.332622,5.846609 v 20.366758 c 0,0.728153 -0.364071,1.092223 -1.092223,1.092223 z m 17.828949,10.408249 h -3.40517 c -0.728155,0 -1.092226,-0.364071 -1.092226,-1.092223 v -3.276671 c 0,-0.770986 0.364071,-1.156472 1.092226,-1.156472 h 1.47771 c 2.61278,0 4.42243,-0.513983 5.429,-1.541963 1.00656,-1.027981 1.85249,-2.719839 2.53781,-5.075628 h -2.56994 c -0.64249,0 -1.09222,-0.364071 -1.34922,-1.092223 L 97.3364,9.6372673 C 97.16507,8.9091146 97.443477,8.5450437 98.17163,8.5450437 h 4.30465 c 0.68532,0 1.11364,0.3640709 1.28497,1.0922236 l 7.00308,25.1853917 h 0.25699 L 118.0244,9.6372673 c 0.1285,-0.7281527 0.55682,-1.0922236 1.28497,-1.0922236 h 4.1119 c 0.81382,0 1.15647,0.3854868 1.02798,1.1564721 L 115.64721,40.60502 c -0.98515,3.597931 -2.37718,6.349878 -4.17615,8.255925 -1.79897,1.906047 -4.36888,2.859056 -7.70981,2.859056 z m 46.291,-10.408249 h -20.8165 c -0.72815,0 -1.09222,-0.36407 -1.09222,-1.092223 V 1.0922236 C 128.14353,0.3640709 128.5076,0 129.23575,0 h 4.04766 c 0.72815,0 1.09222,0.3640709 1.09222,1.0922236 V 35.079653 c 0,0.428325 0.25699,0.642485 0.77098,0.642485 h 14.90564 c 0.72815,0 1.09223,0.385486 1.09223,1.156472 v 3.340919 c 0,0.728153 -0.36408,1.092223 -1.09223,1.092223 z m 15.773,0 h -2.50569 c -3.16961,0 -5.62173,-0.878053 -7.35645,-2.634186 -1.73472,-1.756133 -2.60206,-4.19755 -2.60206,-7.324323 v -12.84969 c 0,-3.169606 0.86734,-5.62173 2.60206,-7.356447 1.73472,-1.7347169 4.18684,-2.6020623 7.35645,-2.6020623 h 14.39165 c 0.77098,0 1.15647,0.3640709 1.15647,1.0922236 V 40.219529 c 0,0.728153 -0.38549,1.092223 -1.15647,1.092223 h -4.04765 c -0.72816,0 -1.09223,-0.36407 -1.09223,-1.092223 v -2.312944 h -0.25699 c -1.02798,2.270123 -3.19099,3.405167 -6.48909,3.405167 z m 6.74608,-10.922236 v -15.74087 c 0,-0.428325 -0.23557,-0.642484 -0.70673,-0.642484 h -7.64556 c -3.08395,0 -4.62589,1.584779 -4.62589,4.754385 v 12.335702 c 0,3.169606 1.54194,4.754385 4.62589,4.754385 h 3.08392 c 3.51227,0 5.26837,-1.820354 5.26837,-5.461118 z m 17.05797,10.922236 h -4.04766 c -0.72815,0 -1.09222,-0.36407 -1.09222,-1.092223 V 9.6372673 c 0,-0.7281527 0.36407,-1.0922236 1.09222,-1.0922236 h 4.04766 c 0.72815,0 1.09222,0.3640709 1.09222,1.0922236 v 2.3129447 h 0.25699 c 1.02798,-2.2701237 3.19099,-3.4051683 6.4891,-3.4051683 h 2.82693 c 3.12677,0 5.52536,0.8566374 7.19583,2.5699383 1.67046,1.7133 2.50569,4.176133 2.50569,7.388571 v 21.715976 c 0,0.728153 -0.38549,1.092223 -1.15648,1.092223 h -4.04765 c -0.72815,0 -1.09222,-0.36407 -1.09222,-1.092223 V 18.760547 c 0,-3.169606 -1.56337,-4.754385 -4.69014,-4.754385 h -3.01968 c -3.51226,0 -5.26837,1.820354 -5.26837,5.461118 v 20.752249 c 0,0.728153 -0.36407,1.092223 -1.09222,1.092223 z"
         id="BerryLan"
         inkscape:connector-curvature="0" />
    </g>
  </g>
  <g
     id="g846"
     transform="matrix(0.4789392,0,0,0.4789392,-56.035886,-62.741035)">
    <circle
       id="Oval-2"
       cx="202.5"
       cy="216.5"
       r="85.5"
       style="fill:url(#linearGradient849);fill-rule:evenodd;stroke:none;stroke-width:1" />
    <circle
       id="circle12"
       cx="348.5"
       cy="216.5"
       r="85.5"
       style="fill:url(#linearGradient851);fill-rule:evenodd;stroke:none;stroke-width:1" />
    <circle
       id="circle14"
       cx="496.5"
       cy="216.5"
       r="85.5"
       style="fill:url(#linearGradient853);fill-rule:evenodd;stroke:none;stroke-width:1" />
    <g
       id="link"
       transform="translate(441,188)"
       style="fill:none;fill-rule:nonzero;stroke:none;stroke-width:1">
      <path
         d="m 57.554816,14.422222 h -0.710554 v 0 z"
         id="Shape"
         inkscape:connector-curvature="0"
         style="fill:#000000" />
      <path
         d="M 90.151447,0 H 75.79235 c 0,0 7.69766,5.1078704 9.355618,14.422222 h 4.855447 c 5.358756,0 9.474044,4.176435 9.474044,9.464584 v 9.614814 c 0,5.288148 -4.115288,9.765047 -9.326012,9.765047 H 56.992294 c -5.210724,0 -9.622075,-4.476899 -9.622075,-9.765047 V 24.037037 H 33.159153 v 9.464583 c 0,3.455324 0.74016,6.760417 2.042841,9.765047 3.730404,8.473055 12.109012,14.422222 21.7903,14.422222 h 33.159153 c 13.086023,0 23.537083,-10.906806 23.537083,-24.187269 V 23.886806 C 113.68853,10.606343 103.23747,0 90.151447,0 Z"
         id="path17"
         inkscape:connector-curvature="0"
         style="fill:#ffffff" />
      <path
         d="M 78.634563,14.422222 C 75.05219,5.9191204 66.762402,0 56.992294,0 H 23.833141 C 10.747118,0 0,10.606343 0,23.886806 v 9.614814 c 0,13.280463 10.747118,24.187269 23.833141,24.187269 h 14.063034 c 0,0 -7.638448,-5.107871 -9.50365,-14.422222 h -4.559384 c -5.210724,0 -9.622075,-4.476899 -9.622075,-9.765047 v -9.614814 c 0,-5.288149 4.411351,-9.464584 9.622075,-9.464584 h 33.011121 0.148032 c 5.210724,0 9.326012,4.176435 9.326012,9.464584 v 9.614814 0.150232 H 80.529372 V 33.50162 23.886806 c 0,-3.365186 -0.680947,-6.580139 -1.894809,-9.464584 z"
         id="path19"
         inkscape:connector-curvature="0"
         style="fill:#ffffff" />
    </g>
    <g
       id="wifi"
       transform="translate(288,172)"
       style="fill:#ffffff;fill-rule:nonzero;stroke:none;stroke-width:1">
      <path
         d="M 60.806354,0 V 0 C 39.126623,0 18.559369,8.0929333 2.7676252,22.763067 L 0,25.3344 l 2.6862245,2.652533 8.7641465,8.661334 2.523423,2.490133 2.604824,-2.381867 C 28.653061,25.686267 44.336271,19.5692 60.752087,19.5692 c 16.415816,0 32.12616,6.117067 44.173473,17.187333 l 2.60482,2.381867 2.52342,-2.490133 8.76415,-8.661334 2.68622,-2.652533 -2.76762,-2.571333 C 102.99907,8.0929333 82.404685,0 60.806354,0 Z"
         id="path22"
         inkscape:connector-curvature="0" />
      <path
         d="M 99.146104,43.414933 C 88.618275,33.914533 75.024351,28.690667 60.860621,28.690667 h -0.02713 -0.0814 -2.306354 l -0.02713,0.05413 c -13.349729,0.541336 -26.048245,5.71107 -35.979136,14.670136 l -2.849026,2.571334 2.740492,2.706666 8.872681,8.7696 2.469156,2.436 2.604823,-2.2736 c 6.864796,-6.0088 15.574676,-9.338 24.501624,-9.338 8.981215,0 17.691094,3.3292 24.55589,9.338 l 2.604824,2.2736 2.469156,-2.436 8.872681,-8.7696 2.740488,-2.706666 z"
         id="path24"
         inkscape:connector-curvature="0" />
      <path
         d="m 60.833488,86.613333 2.604824,-2.571333 14.32653,-14.1288 2.87616,-2.842 -3.147496,-2.571333 c -4.178571,-3.0856 -8.79128,-5.413334 -16.687152,-5.413334 -7.868738,0 -12.182977,2.544267 -16.687152,5.413334 L 40.99884,67.0712 43.875,69.9132 58.201531,84.042 Z"
         id="path26"
         inkscape:connector-curvature="0" />
    </g>
    <g
       id="bluetooth"
       transform="translate(168,155)"
       style="fill:#ffffff;fill-rule:nonzero;stroke:none;stroke-width:1">
      <path
         d="M 3.1560049,29.892857 C -1.0518804,34.151786 0.05963651,34.526786 0.35074807,34.821429 0.64185963,35.116071 24.116037,57.75 24.116037,57.75 c 0,0 1.032123,0.910714 1.032123,2.25 v 0 c 0,1.339286 -1.032123,2.25 -1.032123,2.25 0,0 -23.47417737,22.633929 -23.76528893,22.928571 -0.29111156,0.294643 -1.40262847,0.669643 2.80525683,4.928572 4.2078853,4.258928 4.8695025,3.267857 5.08122,3.053571 L 26.074424,75.9375 c 0.02646,-0.02679 0.05293,-0.05357 0.07939,-0.08036 0.02646,-0.02679 0.07939,-0.05357 0.105859,-0.08036 0.608688,-0.508929 2.593539,-2.839286 2.593539,-0.857143 v 41.892853 0.0268 0.45535 c 0,1.47322 1.376164,2.70536 3.069904,2.70536 0.926264,0 1.773134,-0.34821 2.355357,-0.9375 v 0 c 0,0 31.281261,-30.214282 32.498637,-31.392853 1.217375,-1.178572 1.323234,-2.866072 0.264646,-3.9375 L 44.837888,62.223214 c 0,0 -1.164446,-1.151785 -1.164446,-2.223214 0,-1.071429 1.164446,-2.223214 1.164446,-2.223214 L 67.04176,36.267857 c 1.058588,-1.071428 0.952729,-2.785714 -0.264646,-3.9375 C 65.559738,31.151786 34.278477,0.9375 34.278477,0.9375 v 0 C 33.722719,0.375 32.875849,0 31.949585,0 30.255845,0 28.879681,1.2321429 28.879681,2.7053571 v 0.4553572 0.053571 41.8928577 c 0,1.982143 -1.984851,-0.348214 -2.593539,-0.857143 -0.02647,-0.02679 -0.07939,-0.05357 -0.105859,-0.08036 -0.02646,-0.02679 -0.05293,-0.05357 -0.07939,-0.08036 L 8.2636896,26.866071 C 7.9990427,26.625 7.3638902,25.633929 3.1560049,29.892857 Z M 40.206567,23.544643 c 0,-1.767857 1.984852,0.616071 2.59354,1.178571 l 8.071729,7.821429 c 0.555759,0.535714 0.767476,1.258928 0.767476,1.928571 0,0.669643 -0.264647,1.5 -0.741011,1.955357 -0.476364,0.455358 -8.151124,7.901786 -8.151124,7.901786 -0.608687,0.482143 -2.54061,2.625 -2.54061,0.455357 0,0 0,-19.473214 0,-21.241071 z m 0,51.669643 c 0,-2.196429 1.905458,-0.05357 2.54061,0.455357 0,0 7.701225,7.446428 8.177589,7.901786 0.476364,0.455357 0.741011,1.3125 0.741011,1.955357 0,0.642857 -0.211717,1.392857 -0.767476,1.928571 l -8.07173,7.821429 c -0.608687,0.5625 -2.593539,2.946428 -2.593539,1.178571 -0.02647,-1.767857 -0.02647,-21.241071 -0.02647,-21.241071 z"
         id="path29"
         inkscape:connector-curvature="0" />
    </g>
  </g>
</svg>
