<?xml version="1.0" encoding="UTF-8" standalone="no"?>
<svg
   xmlns:dc="http://purl.org/dc/elements/1.1/"
   xmlns:cc="http://creativecommons.org/ns#"
   xmlns:rdf="http://www.w3.org/1999/02/22-rdf-syntax-ns#"
   xmlns:svg="http://www.w3.org/2000/svg"
   xmlns="http://www.w3.org/2000/svg"
   xml:space="preserve"
   style="enable-background:new 0 0 512 512;"
   viewBox="0 0 512 512"
   height="512px"
   width="512px"
   y="0px"
   x="0px"
   id="Layer_1"
   version="1.1"><metadata
   id="metadata915"><rdf:RDF><cc:Work
       rdf:about=""><dc:format>image/svg+xml</dc:format><dc:type
         rdf:resource="http://purl.org/dc/dcmitype/StillImage" /><dc:title></dc:title></cc:Work></rdf:RDF></metadata><defs
   id="defs913">
	
	
	
</defs>
<path
   style="fill:#000000;fill-opacity:0.50196081"
   d="m 256.1,96 v 0 c -79.9,0 -155.7,29.9 -213.9,84.1 l -10.2,9.5 9.9,9.8 32.3,32 9.3,9.2 9.6,-8.8 c 44.5,-40.9 102.3,-63.5 162.8,-63.5 60.5,0 118.4,22.6 162.8,63.5 l 9.6,8.8 9.3,-9.2 32.3,-32 9.9,-9.8 -10.2,-9.5 C 411.6,125.9 335.7,96 256.1,96 Z"
   id="path902" /><path
   style="fill:#000000;fill-opacity:0.50196081"
   d="M 397.4,256.4 C 358.6,221.3 308.5,202 256.3,202 h -0.1 -0.3 -8.5 l -0.1,0.2 c -49.2,2 -96,21.1 -132.6,54.2 l -10.5,9.5 10.1,10 32.7,32.4 9.1,9 9.6,-8.4 c 25.3,-22.2 57.4,-34.5 90.3,-34.5 33.1,0 65.2,12.3 90.5,34.5 l 9.6,8.4 9.1,-9 32.7,-32.4 10.1,-10 z"
   id="path904" /><path
   d="m 256.2,416 9.6,-9.5 52.8,-52.2 10.6,-10.5 -11.6,-9.5 c -15.4,-11.4 -32.4,-20 -61.5,-20 -29,0 -44.9,9.4 -61.5,20 l -11.5,9.5 10.6,10.5 52.8,52.2 z"
   id="path906" />
</svg>